# File created by Blade
# Date/Time:  Fri Jan 16 19:14:28 2015
# Frame Rate: 120.000 fps
#------------------------------------------------------
:FULLY-SPECIFIED
:DEGREES
1047
root 18.912693 35.760427 -21.963256 -169.721093 -0.585213 -178.582020
Spine -21.644663 0.549826 -0.040247
Head 13.121289 -2.792170 1.750266
LeftShoulder -11.307913 -45.375627 30.964954
LeftArm 7.059704 0.164991 4.910152
LeftForeArm 21.110527 -0.000000 -1.712262
LeftHand -2.987367 -0.000000 -10.318125
LeftHandThumb1 -26.253704 0.000000 33.147579
RightShoulder -9.611879 10.593998 -19.021167
RightArm -1.432546 42.333647 -4.220567
RightForeArm -45.425470 -0.000000 3.464949
RightHand -1.654782 -0.000000 3.123046
RightHandThumb1 -24.326973 -0.000000 -32.862282
LeftUpLeg -1.189368 7.991884 0.282518
LeftLeg -7.005057 -0.000000 0.000000
LeftFoot -20.007595 28.536042 -15.641427
LeftToeBase 23.640949 -0.000000 -0.000000
RightUpLeg -2.966217 -9.032453 0.822937
RightLeg -3.635262 -0.000000 0.000000
RightFoot -19.370705 -22.839866 19.530693
RightToeBase 22.950963 -0.000000 -0.000000
1048
root 18.911325 35.760208 -21.956497 -169.779779 -0.521243 -178.579397
Spine -21.544467 0.585898 -0.021743
Head 13.032427 -2.747128 1.791995
LeftShoulder -11.339721 -45.140946 30.742799
LeftArm 6.788798 0.117227 4.642946
LeftForeArm 21.050412 -0.000000 -1.789660
LeftHand -2.923982 -0.000000 -10.359150
LeftHandThumb1 -26.253704 0.000000 33.147579
RightShoulder -9.617372 10.349894 -18.742430
RightArm -1.545054 42.330092 -3.912817
RightForeArm -45.150372 0.000000 3.476501
RightHand -1.827797 -0.000000 3.098335
RightHandThumb1 -24.326973 -0.000000 -32.862282
LeftUpLeg -1.132194 7.995010 0.284502
LeftLeg -7.001668 -0.000000 0.000000
LeftFoot -20.023394 28.583156 -15.645649
LeftToeBase 23.637905 -0.000000 -0.000000
RightUpLeg -2.941925 -8.994470 0.808922
RightLeg -3.603498 -0.000000 0.000000
RightFoot -19.362402 -22.829253 19.489268
RightToeBase 22.926838 -0.000000 -0.000000
1049
root 18.910273 35.760085 -21.949404 -169.835569 -0.461356 -178.586047
Spine -21.450847 0.598750 -0.014973
Head 12.955526 -2.701714 1.857483
LeftShoulder -11.416966 -44.914937 30.540072
LeftArm 6.568639 0.052981 4.392334
LeftForeArm 20.987531 -0.000000 -1.829551
LeftHand -2.865020 -0.000000 -10.487540
LeftHandThumb1 -26.253704 0.000000 33.147579
RightShoulder -9.593997 10.133571 -18.458144
RightArm -1.666013 42.268167 -3.615455
RightForeArm -44.897355 -0.000000 3.454447
RightHand -1.796104 -0.000000 3.112322
RightHandThumb1 -24.326973 -0.000000 -32.862282
LeftUpLeg -1.106078 8.068974 0.272910
LeftLeg -6.950871 -0.000000 0.000000
LeftFoot -20.041918 28.561629 -15.628475
LeftToeBase 23.650685 -0.000000 -0.000000
RightUpLeg -2.918770 -8.978440 0.787017
RightLeg -3.575403 -0.000000 0.000000
RightFoot -19.367825 -22.796061 19.463240
RightToeBase 23.004797 -0.000000 -0.000000
1050
root 18.910179 35.759015 -21.942492 -169.897140 -0.402385 -178.584604
Spine -21.356672 0.609066 0.003754
Head 12.891241 -2.631552 1.923824
LeftShoulder -11.497288 -44.613566 30.299483
LeftArm 6.384342 -0.195577 4.142706
LeftForeArm 20.986040 -0.000000 -1.832861
LeftHand -3.012616 -0.000000 -10.331247
LeftHandThumb1 -26.253704 0.000000 33.147579
RightShoulder -9.580865 9.894632 -18.207345
RightArm -1.725621 42.336758 -3.227637
RightForeArm -44.804372 -0.000000 3.439420
RightHand -1.829227 -0.000000 3.014286
RightHandThumb1 -24.326973 -0.000000 -32.862282
LeftUpLeg -1.054117 8.093018 0.275318
LeftLeg -6.937642 -0.000000 0.000000
LeftFoot -20.052986 28.597335 -15.612778
LeftToeBase 23.629422 -0.000000 -0.000000
RightUpLeg -2.891731 -8.954176 0.774168
RightLeg -3.543886 -0.000000 0.000000
RightFoot -19.361027 -22.777112 19.414138
RightToeBase 23.011481 -0.000000 -0.000000
1051
root 18.909116 35.758222 -21.935109 -169.946453 -0.343739 -178.590732
Spine -21.284351 0.647116 0.008482
Head 12.850631 -2.591973 1.972807
LeftShoulder -11.535488 -44.353179 30.044995
LeftArm 6.200750 -0.461987 3.874534
LeftForeArm 20.872273 -0.000000 -1.862752
LeftHand -3.092434 0.000000 -10.222491
LeftHandThumb1 -26.253704 0.000000 33.147579
RightShoulder -9.579351 9.700868 -17.973334
RightArm -1.817116 42.406968 -2.899771
RightForeArm -44.659608 -0.000000 3.406700
RightHand -1.765470 -0.000000 2.992355
RightHandThumb1 -24.326973 -0.000000 -32.862282
LeftUpLeg -1.021690 8.112986 0.266649
LeftLeg -6.910388 -0.000000 0.000000
LeftFoot -20.081989 28.628649 -15.617511
LeftToeBase 23.649808 -0.000000 -0.000000
RightUpLeg -2.874945 -8.922737 0.752308
RightLeg -3.515658 -0.000000 0.000000
RightFoot -19.355039 -22.768655 19.354251
RightToeBase 23.039334 -0.000000 -0.000000
1052
root 18.908459 35.757436 -21.928695 -170.006387 -0.288221 -178.591256
Spine -21.204228 0.690489 0.019695
Head 12.807747 -2.580141 1.994268
LeftShoulder -11.527203 -44.136729 29.758187
LeftArm 6.008752 -0.659396 3.658453
LeftForeArm 20.708742 -0.000000 -1.880272
LeftHand -3.248337 -0.000000 -10.143200
LeftHandThumb1 -26.253704 0.000000 33.147579
RightShoulder -9.589023 9.506489 -17.770984
RightArm -1.883307 42.527694 -2.519510
RightForeArm -44.646113 -0.000000 3.387001
RightHand -1.798227 -0.000000 2.838703
RightHandThumb1 -24.326973 -0.000000 -32.862282
LeftUpLeg -0.977434 8.150525 0.265845
LeftLeg -6.883439 -0.000000 0.000000
LeftFoot -20.105329 28.634915 -15.610620
LeftToeBase 23.681141 -0.000000 -0.000000
RightUpLeg -2.840311 -8.899175 0.737354
RightLeg -3.500255 -0.000000 0.000000
RightFoot -19.352860 -22.759167 19.317540
RightToeBase 23.071122 -0.000000 -0.000000
1053
root 18.907067 35.756994 -21.920134 -170.055623 -0.224687 -178.592752
Spine -21.135421 0.750213 0.033115
Head 12.750199 -2.592394 2.028076
LeftShoulder -11.503233 -43.875360 29.462510
LeftArm 5.800824 -0.860106 3.425246
LeftForeArm 20.521566 -0.000000 -1.863688
LeftHand -3.345057 -0.000000 -10.088708
LeftHandThumb1 -26.253704 0.000000 33.147579
RightShoulder -9.598169 9.261569 -17.573584
RightArm -1.931860 42.685631 -2.143861
RightForeArm -44.479739 -0.000000 3.310799
RightHand -1.776059 -0.000000 2.888838
RightHandThumb1 -24.326973 -0.000000 -32.862282
LeftUpLeg -0.948325 8.195470 0.260895
LeftLeg -6.851943 -0.000000 0.000000
LeftFoot -20.116884 28.635638 -15.592470
LeftToeBase 23.654661 -0.000000 -0.000000
RightUpLeg -2.824578 -8.849446 0.720810
RightLeg -3.475525 -0.000000 0.000000
RightFoot -19.347526 -22.757004 19.285120
RightToeBase 23.059675 -0.000000 -0.000000
1054
root 18.907643 35.756487 -21.913194 -170.108089 -0.164584 -178.597090
Spine -21.065258 0.797784 0.040653
Head 12.694113 -2.565137 2.027892
LeftShoulder -11.483020 -43.554303 29.155541
LeftArm 5.613120 -1.102060 3.206530
LeftForeArm 20.238774 -0.000000 -1.838923
LeftHand -3.401934 -0.000000 -10.182544
LeftHandThumb1 -26.253704 0.000000 33.147579
RightShoulder -9.623697 8.968709 -17.360270
RightArm -1.914885 42.919127 -1.735990
RightForeArm -44.322537 -0.000000 3.256602
RightHand -1.815771 -0.000000 2.736089
RightHandThumb1 -24.326973 -0.000000 -32.862282
LeftUpLeg -0.906085 8.231956 0.256508
LeftLeg -6.836287 -0.000000 0.000000
LeftFoot -20.130126 28.645370 -15.589074
LeftToeBase 23.691497 -0.000000 -0.000000
RightUpLeg -2.797776 -8.810662 0.702470
RightLeg -3.457850 -0.000000 0.000000
RightFoot -19.336690 -22.741156 19.248224
RightToeBase 23.023536 -0.000000 -0.000000
1055
root 18.907826 35.755938 -21.905218 -170.173612 -0.116387 -178.604177
Spine -20.980954 0.812565 0.060107
Head 12.652998 -2.558277 2.003071
LeftShoulder -11.458850 -43.205065 28.849744
LeftArm 5.427013 -1.247420 3.000167
LeftForeArm 19.829511 0.000000 -1.855830
LeftHand -3.464899 -0.000000 -10.185989
LeftHandThumb1 -26.253704 0.000000 33.147579
RightShoulder -9.645522 8.484746 -17.165930
RightArm -1.857654 43.379953 -1.244505
RightForeArm -44.112441 -0.000000 3.198570
RightHand -1.773294 -0.000000 2.618464
RightHandThumb1 -24.326973 -0.000000 -32.862282
LeftUpLeg -0.859182 8.253135 0.251070
LeftLeg -6.815093 -0.000000 0.000000
LeftFoot -20.136489 28.690316 -15.569961
LeftToeBase 23.658157 -0.000000 -0.000000
RightUpLeg -2.755132 -8.774799 0.682075
RightLeg -3.448143 -0.000000 0.000000
RightFoot -19.341021 -22.749544 19.213648
RightToeBase 23.039658 -0.000000 -0.000000
1056
root 18.909133 35.755323 -21.898256 -170.230926 -0.064989 -178.601828
Spine -20.908689 0.845124 0.083081
Head 12.607258 -2.559969 1.970332
LeftShoulder -11.426545 -42.865341 28.526412
LeftArm 5.257472 -1.360384 2.816155
LeftForeArm 19.690298 -0.000000 -1.810562
LeftHand -3.560888 -0.000000 -10.332075
LeftHandThumb1 -26.253704 0.000000 33.147579
RightShoulder -9.657777 8.213635 -17.012485
RightArm -1.829257 43.533842 -0.774085
RightForeArm -43.929010 -0.000000 3.177122
RightHand -1.923795 -0.000000 2.636117
RightHandThumb1 -24.326973 -0.000000 -32.862282
LeftUpLeg -0.816837 8.302606 0.252351
LeftLeg -6.793531 -0.000000 0.000000
LeftFoot -20.153689 28.696181 -15.554972
LeftToeBase 23.741439 -0.000000 -0.000000
RightUpLeg -2.725176 -8.748413 0.674217
RightLeg -3.426903 -0.000000 0.000000
RightFoot -19.336033 -22.737711 19.163835
RightToeBase 23.147054 -0.000000 -0.000000
